<svg width="62" height="63" viewBox="0 0 62 63" fill="none" xmlns="http://www.w3.org/2000/svg">
<path fill-rule="evenodd" clip-rule="evenodd" d="M25.8332 5.66663H36.7865C42.2676 5.66663 47.5243 7.844 51.4 11.7198C55.2758 15.5955 57.4532 20.8522 57.4532 26.3333V37.2866C57.4532 48.7005 48.2004 57.9533 36.7865 57.9533H25.8332C14.4193 57.9533 5.1665 48.7005 5.1665 37.2866V26.3333C5.1665 14.9194 14.4193 5.66663 25.8332 5.66663ZM31.3098 47.31C32.7366 47.31 33.8932 46.1534 33.8932 44.7266V31.81C33.8971 31.1233 33.6276 30.4633 33.144 29.9758L22.8107 19.6425C22.1554 18.9872 21.2003 18.7313 20.3052 18.9711C19.41 19.211 18.7108 19.9101 18.471 20.8053C18.2311 21.7004 18.4871 22.6555 19.1423 23.3108L28.7265 32.8691V44.7266C28.7265 46.1534 29.8831 47.31 31.3098 47.31Z" fill="#1BAAE1"/>
</svg>
