<svg width="62" height="62" viewBox="0 0 62 62" fill="none" xmlns="http://www.w3.org/2000/svg">
<path fill-rule="evenodd" clip-rule="evenodd" d="M31.904 18.3933C28.4293 18.3168 25.0704 19.6439 22.5863 22.0745C20.1021 24.5052 18.7023 27.8344 18.7032 31.31C18.6839 34.0874 19.5428 36.7999 21.1573 39.06C23.7376 42.5126 25.1738 46.6856 25.2648 50.995C25.6771 54.2478 28.4443 56.6864 31.7232 56.6864C35.0021 56.6864 37.7692 54.2478 38.1815 50.995C38.0505 46.8679 39.3359 42.8203 41.824 39.525C43.5841 37.3186 44.5731 34.5966 44.6398 31.775C44.7566 24.5867 39.0892 18.632 31.904 18.3933ZM28.649 50.1941C27.6999 50.0386 27.0031 49.2184 27.0031 48.2566C27.0031 47.2948 27.6999 46.4746 28.649 46.3191H34.5907C35.5398 46.4746 36.2366 47.2948 36.2366 48.2566C36.2366 49.2184 35.5398 50.0386 34.5907 50.1941H28.649ZM38.569 30.8966C38.5545 31.9568 39.3949 32.8318 40.4549 32.86L40.5582 32.8858C41.5939 32.8719 42.4301 32.0357 42.444 31C42.4924 28.2549 41.4463 25.6034 39.5367 23.6307C37.6271 21.6581 35.0109 20.5265 32.2657 20.4858C31.1956 20.4858 30.3282 21.3532 30.3282 22.4233C30.3282 23.4933 31.1956 24.3608 32.2657 24.3608C35.7725 24.5121 38.5448 27.3866 38.569 30.8966Z" fill="#F5F5F5"/>
<path d="M31.7232 16.0425C32.7874 16.0285 33.6468 15.1692 33.6607 14.105V7.10413C33.6607 6.41192 33.2914 5.7723 32.6919 5.4262C32.0925 5.0801 31.3539 5.0801 30.7544 5.4262C30.155 5.7723 29.7857 6.41192 29.7857 7.10413V14.105C29.7996 15.1692 30.659 16.0285 31.7232 16.0425Z" fill="#F5F5F5"/>
<path d="M50.6073 12.5808C49.8509 11.8253 48.6254 11.8253 47.869 12.5808L43.0382 17.3858C42.4848 17.9399 42.3193 18.7726 42.6189 19.4962C42.9185 20.2197 43.6242 20.6918 44.4073 20.6925C44.9216 20.6949 45.4151 20.49 45.7765 20.1241L50.6073 15.3191C51.3628 14.5627 51.3628 13.3372 50.6073 12.5808Z" fill="#F5F5F5"/>
<path d="M55.8773 28.4941H49.0832C48.0131 28.4941 47.1457 29.3616 47.1457 30.4316C47.1457 31.5017 48.0131 32.3691 49.0832 32.3691H55.8773C56.9474 32.3691 57.8148 31.5017 57.8148 30.4316C57.8148 29.3616 56.9474 28.4941 55.8773 28.4941Z" fill="#F5F5F5"/>
<path d="M13.8982 28.4941H7.104C6.03395 28.4941 5.1665 29.3616 5.1665 30.4316C5.1665 31.5017 6.03395 32.3691 7.104 32.3691H13.8982C14.9682 32.3691 15.8357 31.5017 15.8357 30.4316C15.8357 29.3616 14.9682 28.4941 13.8982 28.4941Z" fill="#F5F5F5"/>
<path d="M20.124 20.1241C20.4933 19.7643 20.7016 19.2706 20.7016 18.755C20.7016 18.2394 20.4933 17.7456 20.124 17.3858L15.319 12.5808C14.836 12.0624 14.1086 11.8491 13.4221 12.0244C12.7356 12.1997 12.1996 12.7357 12.0243 13.4222C11.8489 14.1087 12.0623 14.8361 12.5807 15.3191L17.3857 20.1241C17.747 20.49 18.2406 20.6949 18.7548 20.6925C19.2697 20.6979 19.7643 20.4925 20.124 20.1241Z" fill="#F5F5F5"/>
</svg>
