<svg width="62" height="63" viewBox="0 0 62 63" fill="none" xmlns="http://www.w3.org/2000/svg">
<path d="M41.9495 40.7854C40.0278 39.5883 37.6235 39.471 35.5945 40.4754L27.8445 32.7254C28.4184 31.4163 28.5455 29.9547 28.2061 28.5662C28.1484 28.3729 28.0794 28.1831 27.9995 27.9979L35.5945 20.4029C38.4383 21.8051 41.8801 20.9161 43.6892 18.312C45.4983 15.708 45.1304 12.1724 42.824 9.99653C40.5177 7.82068 36.9666 7.65924 34.4723 9.61682C31.978 11.5744 31.2908 15.0621 32.8561 17.8195L25.7003 24.872C23.2638 23.1402 19.9573 23.3067 17.7071 25.2745C15.4569 27.2423 14.8512 30.4972 16.2429 33.1427C17.6345 35.7883 20.6598 37.1331 23.5561 36.3937C24.1581 36.2169 24.7321 35.956 25.2611 35.6187L33.0111 43.3687C31.4194 46.4805 32.6039 50.2939 35.6785 51.9563C38.7532 53.6187 42.5926 52.5218 44.3249 49.4859C46.0572 46.4501 45.0482 42.5866 42.0528 40.7854H41.9495Z" fill="#1BAAE1"/>
</svg>
