<svg width="62" height="63" viewBox="0 0 62 63" fill="none" xmlns="http://www.w3.org/2000/svg">
<path d="M23.0431 31.5001H23.2498C28.9567 31.5001 33.5831 26.8737 33.5831 21.1667V17.1109C33.5763 14.7929 32.6454 12.5734 30.9967 10.9441C29.348 9.31479 27.1176 8.41024 24.7998 8.43089H21.3898C16.6018 8.44507 12.724 12.3229 12.7098 17.1109V21.1667C12.7098 26.8737 17.3362 31.5001 23.0431 31.5001Z" fill="#1BAAE1"/>
<path d="M45.2081 29.5626C49.4883 29.5626 52.9581 26.0928 52.9581 21.8126V18.8417C52.9582 15.2664 50.075 12.3601 46.4998 12.3317H43.9164C40.3413 12.3601 37.458 15.2664 37.4581 18.8417V21.8126C37.4581 26.0928 40.9279 29.5626 45.2081 29.5626Z" fill="#1BAAE1"/>
<path d="M57.8406 40.3351L57.4273 38.2942C56.9387 35.4926 54.5103 33.4454 51.6664 33.4376H35.9081C33.9823 33.4417 32.1872 34.412 31.1289 36.0209H12.9164C11.0892 36.0222 9.33218 36.725 8.00809 37.9842C6.87048 39.0266 6.06991 40.3849 5.70893 41.8851C5.70893 42.0142 5.70893 42.1434 5.70893 42.2467V42.9184L5.16643 44.9851C4.61389 47.2461 5.10679 49.6357 6.50892 51.4935C7.91104 53.3513 10.0739 54.4806 12.3998 54.5692H33.7898C34.3387 54.5674 34.8853 54.4979 35.4173 54.3626H35.7531C36.1413 54.2519 36.5212 54.1138 36.8898 53.9492L37.3031 53.7167C37.6114 53.5427 37.9052 53.344 38.1814 53.1226L38.5948 52.7867C38.8489 52.5499 39.0903 52.2998 39.3181 52.0376C39.3181 51.9084 39.5506 51.805 39.6539 51.6501C39.9426 51.2707 40.1936 50.8641 40.4031 50.4359C40.5133 50.2011 40.6082 49.9595 40.6873 49.7126C40.7888 49.4772 40.8751 49.2356 40.9456 48.9892C40.9456 48.7309 41.0748 48.4725 41.1264 48.2142V47.8267H52.1831C54.0073 47.7727 55.7085 46.894 56.8084 45.4376C57.9082 43.9812 58.2879 42.1044 57.8406 40.3351Z" fill="#1BAAE1"/>
</svg>
